HIERARCHY
ROOT joint_0
{
	OFFSET 0.000000 0.000000 0.000000
	CHANNELS 6 Xposition Yposition Zposition Zrotation Yrotation Xrotation 
	JOINT joint_1
	{
		OFFSET 0.587158 0.057678 95.682007
		CHANNELS 3 Zrotation Yrotation Xrotation
		JOINT joint_2
		{
			OFFSET -7.116699 -0.219910 87.157959
			CHANNELS 3 Zrotation Yrotation Xrotation
			JOINT joint_3
			{
				OFFSET -5.892822 -0.290222 87.151001
				CHANNELS 3 Zrotation Yrotation Xrotation
				JOINT joint_4
				{
					OFFSET 5.544678 -0.099609 123.768066
					CHANNELS 3 Zrotation Yrotation Xrotation
					JOINT joint_5
					{
						OFFSET 41.981201 4.519775 84.257935
						CHANNELS 3 Zrotation Yrotation Xrotation
						End Site
						{
							OFFSET 0.000000 0.000000 0.000000
						}
					}
				}
				JOINT joint_6
				{
					OFFSET 3.940918 -26.976501 69.308105
					CHANNELS 3 Zrotation Yrotation Xrotation
					JOINT joint_7
					{
						OFFSET 4.776123 -152.592468 -16.842041
						CHANNELS 3 Zrotation Yrotation Xrotation
						JOINT joint_8
						{
							OFFSET 54.421875 -30.424072 -248.864014
							CHANNELS 3 Zrotation Yrotation Xrotation
							JOINT joint_9
							{
								OFFSET 42.120117 -33.387878 -236.524963
								CHANNELS 3 Zrotation Yrotation Xrotation
								End Site
								{
									OFFSET 0.000000 0.000000 0.000000
								}
							}
						}
					}
				}
				JOINT joint_10
				{
					OFFSET 2.312012 26.904114 69.425049
					CHANNELS 3 Zrotation Yrotation Xrotation
					JOINT joint_11
					{
						OFFSET 0.971436 152.197815 -20.626953
						CHANNELS 3 Zrotation Yrotation Xrotation
						JOINT joint_12
						{
							OFFSET 49.954102 28.991455 -249.970093
							CHANNELS 3 Zrotation Yrotation Xrotation
							JOINT joint_13
							{
								OFFSET 48.146973 19.598389 -236.919922
								CHANNELS 3 Zrotation Yrotation Xrotation
								End Site
								{
									OFFSET 0.000000 0.000000 0.000000
								}
							}
						}
					}
				}
			}
		}
	}
	JOINT joint_14
	{
		OFFSET 16.305664 -89.442932 -108.224976
		CHANNELS 3 Zrotation Yrotation Xrotation
		JOINT joint_15
		{
			OFFSET -22.282471 13.437134 -412.904968
			CHANNELS 3 Zrotation Yrotation Xrotation
			JOINT joint_16
			{
				OFFSET -45.426025 14.484802 -445.892029
				CHANNELS 3 Zrotation Yrotation Xrotation
				JOINT joint_17
				{
					OFFSET 173.389404 -9.944031 -76.473001
					CHANNELS 3 Zrotation Yrotation Xrotation
					End Site
					{
						OFFSET 0.000000 0.000000 0.000000
					}
				}
			}
		}
	}
	JOINT joint_18
	{
		OFFSET 13.392822 89.408875 -108.653992
		CHANNELS 3 Zrotation Yrotation Xrotation
		JOINT joint_19
		{
			OFFSET -29.032959 24.483521 -411.977966
			CHANNELS 3 Zrotation Yrotation Xrotation
			JOINT joint_20
			{
				OFFSET -30.530029 28.986328 -446.453018
				CHANNELS 3 Zrotation Yrotation Xrotation
				JOINT joint_21
				{
					OFFSET 170.330078 33.400757 -76.698997
					CHANNELS 3 Zrotation Yrotation Xrotation
					End Site
					{
						OFFSET 0.000000 0.000000 0.000000
					}
				}
			}
		}
	}
}
MOTION
Frames: 9
Frame Time: 0.016667
-2210.728271 990.623474 1061.430054 -0.034446 -0.030329 -0.094048 -0.017560 -0.246325 0.135825 -0.030158 0.039031 -0.027420 -0.027288 -0.048031 0.019290 0.008424 0.192570 -0.037634 0.000000 0.000000 0.000000 -0.190124 0.425139 -0.190999 -0.007779 0.417156 0.197092 0.034855 -0.156815 0.071400 0.000000 0.000000 0.000000 0.370165 0.306553 0.024629 0.040336 0.261890 0.018403 -0.036131 -0.199217 -0.096675 0.000000 0.000000 0.000000 -0.049339 -0.302694 -0.053069 -0.029760 0.747550 0.217411 -0.034343 -0.149081 -0.023697 0.000000 0.000000 0.000000 0.002413 -0.057244 -0.245910 -0.035060 0.343869 0.623935 -0.028013 -0.180530 0.022786 0.000000 0.000000 0.000000 
-2210.618164 990.663208 1061.411011 -0.034749 -0.035209 -0.098123 -0.020328 -0.265509 0.144770 -0.033754 0.039565 -0.029259 -0.030656 -0.050864 0.020990 0.008592 0.213803 -0.040254 0.000000 0.000000 0.000000 -0.208145 0.458310 -0.203022 -0.009966 0.449203 0.204995 0.039388 -0.176826 0.080980 0.000000 0.000000 0.000000 0.399024 0.335342 0.024685 0.043429 0.287198 0.016767 -0.040590 -0.215481 -0.111991 0.000000 0.000000 0.000000 -0.052998 -0.321939 -0.061811 -0.032329 0.806308 0.235519 -0.037350 -0.167999 -0.026108 0.000000 0.000000 0.000000 0.006943 -0.058935 -0.257095 -0.031571 0.370610 0.651467 -0.025527 -0.194237 0.026593 0.000000 0.000000 0.000000 
-2210.503418 990.699341 1061.394043 -0.032929 -0.035650 -0.101877 -0.024063 -0.291560 0.153237 -0.038258 0.042220 -0.031142 -0.034970 -0.053120 0.022130 0.008359 0.234939 -0.042062 0.000000 0.000000 0.000000 -0.225947 0.488964 -0.212879 -0.012119 0.478646 0.211654 0.043195 -0.193350 0.089252 0.000000 0.000000 0.000000 0.428340 0.363020 0.023981 0.045841 0.311243 0.013774 -0.043353 -0.223324 -0.122386 0.000000 0.000000 0.000000 -0.057741 -0.343260 -0.072159 -0.036262 0.860882 0.255929 -0.041318 -0.187352 -0.028967 0.000000 0.000000 0.000000 0.012094 -0.063479 -0.264168 -0.026718 0.392941 0.671271 -0.021761 -0.205424 0.030483 0.000000 0.000000 0.000000 
-2210.391602 990.725159 1061.376953 -0.029025 -0.038289 -0.106579 -0.026743 -0.312423 0.160777 -0.041627 0.043770 -0.032790 -0.038173 -0.055953 0.023164 0.006258 0.253721 -0.039865 0.000000 0.000000 0.000000 -0.243666 0.519099 -0.220890 -0.014461 0.507510 0.217292 0.046923 -0.208793 0.097937 0.000000 0.000000 0.000000 0.452467 0.389464 0.023822 0.047623 0.334690 0.008514 -0.044420 -0.227260 -0.126030 0.000000 0.000000 0.000000 -0.063651 -0.360600 -0.078244 -0.041090 0.912803 0.271582 -0.046520 -0.206518 -0.032361 0.000000 0.000000 0.000000 0.015161 -0.064810 -0.268393 -0.023880 0.413351 0.688629 -0.020018 -0.216963 0.033530 0.000000 0.000000 0.000000 
-2210.284912 990.734253 1061.359985 -0.023295 -0.044806 -0.112712 -0.028424 -0.328005 0.166067 -0.043839 0.047312 -0.034646 -0.040162 -0.058698 0.024903 0.002171 0.265227 -0.032900 0.000000 0.000000 0.000000 -0.259054 0.547649 -0.226360 -0.017180 0.534958 0.221340 0.050609 -0.220074 0.109681 0.000000 0.000000 0.000000 0.473078 0.413234 0.024394 0.048138 0.355801 -0.000975 -0.042510 -0.225378 -0.117394 0.000000 0.000000 0.000000 -0.070726 -0.372561 -0.076850 -0.046449 0.962552 0.278411 -0.053027 -0.225840 -0.036339 0.000000 0.000000 0.000000 0.014624 -0.061383 -0.269761 -0.024736 0.432400 0.704932 -0.021829 -0.228324 0.034942 0.000000 0.000000 0.000000 
-2210.181152 990.731934 1061.343994 -0.015862 -0.053216 -0.119669 -0.030018 -0.338474 0.170163 -0.045870 0.048340 -0.036303 -0.041986 -0.059884 0.026407 -0.002904 0.272402 -0.023487 0.000000 0.000000 0.000000 -0.271139 0.574769 -0.229595 -0.020032 0.561256 0.224413 0.054096 -0.229269 0.121966 0.000000 0.000000 0.000000 0.493061 0.435297 0.025366 0.047895 0.375202 -0.012689 -0.038788 -0.219298 -0.101554 0.000000 0.000000 0.000000 -0.078719 -0.380917 -0.071345 -0.052458 1.009478 0.280519 -0.060517 -0.244683 -0.040722 0.000000 0.000000 0.000000 0.012018 -0.055038 -0.268442 -0.027600 0.449536 0.719019 -0.025574 -0.239135 0.035376 0.000000 0.000000 0.000000 
-2210.075439 990.731873 1061.329956 -0.008131 -0.060469 -0.128166 -0.030714 -0.350036 0.178538 -0.047363 0.050807 -0.038188 -0.043270 -0.063015 0.027875 -0.007141 0.280734 -0.015881 0.000000 0.000000 0.000000 -0.283580 0.601657 -0.234607 -0.022667 0.587328 0.227918 0.057495 -0.239936 0.132592 0.000000 0.000000 0.000000 0.510750 0.457761 0.023761 0.048495 0.395392 -0.020798 -0.036513 -0.214859 -0.092167 0.000000 0.000000 0.000000 -0.087481 -0.388630 -0.065001 -0.059362 1.053220 0.283478 -0.068665 -0.262897 -0.045360 0.000000 0.000000 0.000000 0.009324 -0.048820 -0.264203 -0.030268 0.464738 0.730453 -0.029226 -0.250519 0.035964 0.000000 0.000000 0.000000 
-2209.966553 990.738220 1061.317993 -0.001535 -0.064225 -0.137423 -0.031829 -0.364967 0.192159 -0.049805 0.053263 -0.041427 -0.045371 -0.065863 0.029938 -0.008406 0.288086 -0.014131 0.000000 0.000000 0.000000 -0.290097 0.628357 -0.242513 -0.024979 0.613949 0.232383 0.061126 -0.255144 0.140913 0.000000 0.000000 0.000000 0.533631 0.480911 0.017452 0.050480 0.415678 -0.022428 -0.036848 -0.214005 -0.094158 0.000000 0.000000 0.000000 -0.096238 -0.397372 -0.060345 -0.066665 1.091626 0.289668 -0.076642 -0.278233 -0.049758 0.000000 0.000000 0.000000 0.007171 -0.044754 -0.258275 -0.032172 0.477259 0.739963 -0.032016 -0.260866 0.036736 0.000000 0.000000 0.000000 
-2209.857422 990.744568 1061.310059 0.005524 -0.066248 -0.148135 -0.032286 -0.380519 0.209051 -0.051807 0.054363 -0.044052 -0.047081 -0.067789 0.031775 -0.009041 0.296203 -0.013731 0.000000 0.000000 0.000000 -0.296450 0.654367 -0.251502 -0.027030 0.639913 0.237125 0.064607 -0.272038 0.147062 0.000000 0.000000 0.000000 0.554512 0.503755 0.008263 0.053356 0.436004 -0.019740 -0.038630 -0.214551 -0.102701 0.000000 0.000000 0.000000 -0.105660 -0.406303 -0.054659 -0.074704 1.126854 0.296386 -0.085137 -0.292138 -0.054301 0.000000 0.000000 0.000000 0.004767 -0.041708 -0.249396 -0.033993 0.487899 0.746980 -0.034710 -0.270367 0.037387 0.000000 0.000000 0.000000 
